# xmcd
#
# Track frame offsets: 
#        150
#        15645
#        33222
#        52912
#        71288
#        90654
#        106324
#        120333
#        136625
#        155646
#        174527
#        194963
#        212285
#        226416
#
# Disc length: 3245 seconds
#
# Revision: 0
# Processed by: cddbd v1.5.2PL0 Copyright (c) Steve Scherf et al.
# Submitted via: ExactAudioCopyFreeDBPlugin 1.0
#
DISCID=ad0cab0e
DTITLE=Johnny Gill - Game Changer II
DYEAR=2019
DGENRE=R&B
TTITLE0=Only One
TTITLE1=Johnny Gill feat. Santana, Sheila E - Fiesta
TTITLE2=Soul Of A Woman
TTITLE3=Johnny Gill feat. Ralph Tresvant - Perfect
TTITLE4=Bed On Fire
TTITLE5=Best Thing
TTITLE6=Favorite Girl
TTITLE7=Lose A Lover, Keep A Friend
TTITLE8=Johnny Gill feat. Kevon Edmonds - That's My Baby
TTITLE9=Home
TTITLE10=So Hard
TTITLE11=Angel (Bonus Track)
TTITLE12=Sexy Individual (Bonus Track)
TTITLE13=Beautiful You (Bonus Track)
EXTD=
EXTT0=
EXTT1=
EXTT2=
EXTT3=
EXTT4=
EXTT5=
EXTT6=
EXTT7=
EXTT8=
EXTT9=
EXTT10=
EXTT11=
EXTT12=
EXTT13=
PLAYORDER=
